<svg width="17" height="17" viewBox="0 0 17 17" fill="none" xmlns="http://www.w3.org/2000/svg">
<path d="M8.5 0C3.808 0 0 3.808 0 8.5C0 13.192 3.808 17 8.5 17C13.192 17 17 13.192 17 8.5C17 3.808 13.192 0 8.5 0ZM12.7075 6.9955L7.8965 11.8065C7.81786 11.8853 7.72446 11.9478 7.62163 11.9905C7.5188 12.0331 7.40857 12.0551 7.29725 12.0551C7.18593 12.0551 7.0757 12.0331 6.97287 11.9905C6.87004 11.9478 6.77664 11.8853 6.698 11.8065L4.2925 9.401C4.21381 9.32231 4.15138 9.22888 4.10879 9.12606C4.0662 9.02324 4.04428 8.91304 4.04428 8.80175C4.04428 8.69046 4.0662 8.58026 4.10879 8.47744C4.15138 8.37462 4.21381 8.28119 4.2925 8.2025C4.37119 8.12381 4.46462 8.06138 4.56744 8.01879C4.67026 7.9762 4.78046 7.95428 4.89175 7.95428C5.00304 7.95428 5.11324 7.9762 5.21606 8.01879C5.31888 8.06138 5.41231 8.12381 5.491 8.2025L7.293 10.0045L11.5005 5.797C11.5791 5.7182 11.6725 5.65569 11.7754 5.61303C11.8782 5.57038 11.9884 5.54842 12.0998 5.54842C12.2111 5.54842 12.3213 5.57038 12.4241 5.61303C12.527 5.65569 12.6204 5.7182 12.699 5.797C13.039 6.1285 13.039 6.664 12.7075 6.9955Z" fill="#46BCFF"/>
</svg>
